<svg width="72" height="58" viewBox="0 0 72 58" fill="none" xmlns="http://www.w3.org/2000/svg">
<path d="M31.3766 57.9435L24.5146 55.9383C23.7947 55.7344 23.3897 54.9753 23.5922 54.2503L38.9473 0.98141C39.1498 0.256355 39.9034 -0.151488 40.6234 0.0524334L47.4854 2.05766C48.2053 2.26158 48.6103 3.02063 48.4078 3.74568L33.0527 57.0145C32.839 57.7396 32.0966 58.1588 31.3766 57.9435ZM18.5526 45.2324L23.446 39.9757C23.9634 39.4206 23.9297 38.537 23.356 38.0272L13.1643 28.998L23.356 19.9688C23.9297 19.459 23.9747 18.5753 23.446 18.0202L18.5526 12.7635C18.0464 12.2198 17.1915 12.1858 16.6403 12.7069L0.430279 28.001C-0.143426 28.5335 -0.143426 29.4511 0.430279 29.9836L16.6403 45.289C17.1915 45.8102 18.0464 45.7875 18.5526 45.2324ZM55.3597 45.3004L71.5697 29.9949C72.1434 29.4625 72.1434 28.5448 71.5697 28.0124L55.3597 12.6956C54.8198 12.1858 53.9648 12.2084 53.4474 12.7522L48.554 18.0089C48.0366 18.564 48.0703 19.4476 48.644 19.9574L58.8357 28.998L48.644 38.0272C48.0703 38.537 48.0253 39.4206 48.554 39.9757L53.4474 45.2324C53.9536 45.7875 54.8085 45.8102 55.3597 45.3004Z" fill="#CD104D"/>
</svg>
