<svg width="31" height="31" viewBox="0 0 31 31" fill="none" xmlns="http://www.w3.org/2000/svg">
<path d="M25.7048 25.707L25.7049 25.7069C27.0237 24.3918 28.0747 22.8333 28.7996 21.1178L28.7997 21.1177C30.1907 17.825 30.306 14.1323 29.1231 10.7593C27.9402 7.38622 25.5438 4.57437 22.401 2.87164C19.2581 1.16891 15.5939 0.697263 12.1223 1.54861C8.65073 2.39996 5.62044 4.51331 3.62192 7.47687C1.6234 10.4404 0.79981 14.0419 1.31164 17.5795C1.82346 21.1172 3.63404 24.3375 6.39057 26.6131C9.14709 28.8887 12.6521 30.0565 16.2226 29.889C19.7932 29.7215 23.1735 28.2306 25.7048 25.707ZM1 15.5C1 7.49183 7.49189 1 15.5 1C23.5082 1 30 7.49189 30 15.5C30 23.5081 23.5081 30 15.5 30C7.49189 30 1 23.5082 1 15.5Z" fill="#FD841F" stroke="black" stroke-width="2"/>
<path d="M19.2742 15.5333H8.22601V15.4666H19.2742H21.6884L19.9813 13.7595L15.8413 9.61937L15.8884 9.57225L21.8161 15.4999L15.8884 21.4276L15.8413 21.3805L19.9813 17.2404L21.6884 15.5333H19.2742Z" fill="#FD841F" stroke="black" stroke-width="2"/>
</svg>
