<svg width="34" height="30" viewBox="0 0 34 30" fill="none" xmlns="http://www.w3.org/2000/svg">
<path d="M9.44444 26.25C7.93333 26.25 6.42222 24.9375 5.66667 24.375C1.88889 21.75 0.755556 20.8125 0 20.25V28.125C0 29.1604 0.845868 30 1.88889 30H17C18.043 30 18.8889 29.1604 18.8889 28.125V20.25C18.1333 20.8125 17 21.75 13.2222 24.375C12.4667 24.9375 10.9556 26.25 9.44444 26.25ZM17 15H1.88889C0.845868 15 0 15.8396 0 16.875V17.8125C1.51111 18.9375 1.32222 18.9375 6.8 22.875C7.36667 23.25 8.5 24.375 9.44444 24.375C10.3889 24.375 11.5222 23.25 12.0889 23.0625C17.5667 19.125 17.3778 19.125 18.8889 18V16.875C18.8889 15.8396 18.043 15 17 15ZM32.1111 9.375H13.2222C12.1792 9.375 11.3333 10.2146 11.3333 11.25V13.125H17C18.9603 13.125 20.5765 14.6145 20.7607 16.5129L20.7778 16.5V24.375H32.1111C33.1541 24.375 34 23.5354 34 22.5V11.25C34 10.2146 33.1541 9.375 32.1111 9.375ZM30.2222 16.875H26.4444V13.125H30.2222V16.875ZM9.44444 11.25C9.44444 9.18223 11.1391 7.5 13.2222 7.5H26.4444V1.875C26.4444 0.839648 25.5986 0 24.5556 0H5.66667C4.62365 0 3.77778 0.839648 3.77778 1.875V13.125H9.44444V11.25Z" fill="black"/>
</svg>
