<svg width="181" height="72" viewBox="0 0 181 72" fill="none" xmlns="http://www.w3.org/2000/svg">
<path d="M20.992 35.704L21.088 35.728C21.12 35.728 21.136 35.736 21.136 35.752C21.552 35.592 21.896 35.712 22.168 36.112C22.344 36.384 22.48 36.8 22.576 37.36C22.608 38.128 22.528 39.192 22.336 40.552C21.968 43.304 21.768 44.944 21.736 45.472C21.768 46.032 21.424 46.416 20.704 46.624C20.08 46.816 19.456 46.808 18.832 46.6C18.176 46.376 17.904 46.032 18.016 45.568C17.888 45.808 17.76 45.976 17.632 46.072C17.504 46.184 17.248 46.328 16.864 46.504C16.496 46.696 15.968 46.848 15.28 46.96C14.592 47.088 13.904 47.12 13.216 47.056C12.528 47.008 11.896 46.84 11.32 46.552C10.76 46.28 10.384 45.848 10.192 45.256C9.824 44.104 9.872 42.64 10.336 40.864C10.656 39.696 11.232 38.664 12.064 37.768C13.024 36.744 14.112 35.896 15.328 35.224C16.24 34.728 17.12 34.432 17.968 34.336C18.256 34.304 18.504 34.312 18.712 34.36C18.936 34.408 19.168 34.456 19.408 34.504C19.664 34.552 19.904 34.624 20.128 34.72C20.704 34.96 20.992 35.288 20.992 35.704ZM16.552 42.064C16.664 41.84 16.752 41.56 16.816 41.224C16.896 40.888 17 40.52 17.128 40.12C15.832 40.648 14.84 41.296 14.152 42.064C13.4 42.912 13.448 43.496 14.296 43.816C15.032 44.008 15.568 43.888 15.904 43.456C16.048 43.264 16.176 43.024 16.288 42.736C16.4 42.448 16.536 42.152 16.696 41.848C16.648 41.928 16.6 42 16.552 42.064ZM31.5552 46.576C30.9312 47.088 30.1872 47.472 29.3232 47.728C28.4752 48 27.6192 48.144 26.7552 48.16C25.8912 48.176 25.0832 48.072 24.3312 47.848C23.5792 47.624 22.9872 47.272 22.5552 46.792C22.0432 46.248 21.8672 45.704 22.0272 45.16C22.1072 44.936 22.2512 44.76 22.4592 44.632C22.6512 44.504 22.8912 44.472 23.1792 44.536C23.3712 44.552 23.5072 44.504 23.5872 44.392C23.6832 44.264 23.7632 44.128 23.8272 43.984C23.8912 43.824 23.9632 43.68 24.0432 43.552C24.1232 43.408 24.2512 43.336 24.4272 43.336C27.2432 43.416 28.7072 43.168 28.8192 42.592C28.6272 42.416 28.3872 42.264 28.0992 42.136C27.8272 42.008 27.5472 41.88 27.2592 41.752C26.5552 41.432 26.0832 41.08 25.8432 40.696C25.5392 40.536 25.3072 40.152 25.1472 39.544C25.0672 39.272 25.0272 38.992 25.0272 38.704C25.0272 38.416 25.0752 38.152 25.1712 37.912C25.1232 37.288 25.5072 36.6 26.3232 35.848C26.5472 35.64 26.8272 35.416 27.1632 35.176C27.4992 34.936 28.0032 34.704 28.6752 34.48C29.3472 34.256 30.0112 34.096 30.6672 34C31.3392 33.888 31.9392 33.848 32.4672 33.88C33.0112 33.912 33.3952 34.04 33.6192 34.264C33.8592 34.488 34.0432 34.768 34.1712 35.104C34.3152 35.44 34.3632 35.768 34.3152 36.088C34.1872 36.808 33.5952 37.304 32.5392 37.576C31.2112 37.768 30.5712 37.944 30.6192 38.104C30.6192 38.136 30.5632 38.176 30.4512 38.224C31.6832 39.072 32.5392 39.904 33.0192 40.72C33.6752 41.84 33.7712 43.088 33.3072 44.464C33.3872 44.912 32.9872 45.472 32.1072 46.144C31.8992 46.304 31.7152 46.448 31.5552 46.576ZM48.0158 43.432C48.0158 44.28 48.1198 45.016 48.3278 45.64C48.3278 46.152 48.2078 46.512 47.9678 46.72C47.7278 46.944 47.4238 47.056 47.0558 47.056C46.7038 47.072 46.3278 47 45.9278 46.84C45.5278 46.696 45.1838 46.512 44.8958 46.288C44.6238 46.064 44.4478 45.888 44.3678 45.76C44.2878 45.616 44.1598 45.408 43.9838 45.136C43.7118 43.872 43.5838 43.048 43.5998 42.664C43.6158 42.28 43.6478 41.952 43.6958 41.68C42.8958 42.096 42.3438 42.456 42.0398 42.76C41.4798 43.32 41.0078 44.04 40.6238 44.92C40.4958 45.624 40.3918 45.992 40.3118 46.024C40.2318 46.072 40.1278 46.104 39.9998 46.12C39.8718 46.136 39.7358 46.192 39.5918 46.288C39.4478 46.384 39.3118 46.464 39.1838 46.528C39.0558 46.592 38.9278 46.656 38.7998 46.72C38.4958 46.896 38.2958 46.984 38.1998 46.984C37.2878 47.272 36.4158 47.144 35.5838 46.6C35.2318 46.36 34.9598 46.056 34.7678 45.688C34.5758 45.304 34.5278 44.896 34.6238 44.464C35.3118 41.504 36.2558 38.488 37.4558 35.416C38.1918 33.544 38.8958 32.064 39.5678 30.976C39.7278 30.72 39.8878 30.448 40.0478 30.16C40.3838 29.584 40.6158 29.192 40.7438 28.984C40.5838 28.568 40.5838 28.208 40.7438 27.904C40.9198 27.584 41.1758 27.336 41.5118 27.16C41.8638 26.968 42.2638 26.84 42.7118 26.776C43.1598 26.712 43.5838 26.704 43.9838 26.752C44.9438 26.896 45.4558 27.272 45.5198 27.88C45.4238 28.168 45.2878 28.512 45.1118 28.912C44.9518 29.312 44.7838 29.72 44.6078 30.136C44.4478 30.536 44.2878 30.912 44.1278 31.264C43.9838 31.616 43.8718 31.88 43.7918 32.056C43.7278 32.216 43.6238 32.504 43.4798 32.92C43.3518 33.32 43.2078 33.76 43.0478 34.24C42.9038 34.704 42.7678 35.136 42.6398 35.536L42.3518 36.376C42.2878 36.6 42.1838 36.944 42.0398 37.408C41.8958 37.856 41.7438 38.416 41.5838 39.088C41.7918 38.928 41.9598 38.744 42.0878 38.536C42.2318 38.312 42.4318 38.064 42.6878 37.792C42.9598 37.52 43.3038 37.256 43.7198 37C44.1518 36.728 44.6078 36.552 45.0878 36.472C46.1278 36.296 47.0718 36.632 47.9198 37.48C48.5598 38.12 48.7598 39.08 48.5198 40.36C48.4238 40.888 48.3038 41.424 48.1598 41.968C48.0318 42.496 47.9838 42.984 48.0158 43.432ZM52.3555 35.608C52.5635 35.08 53.0595 34.72 53.8435 34.528C54.5795 34.336 55.2675 34.36 55.9075 34.6C56.5635 34.856 56.8595 35.272 56.7955 35.848C56.6195 36.408 56.3955 37.096 56.1235 37.912C55.8675 38.712 55.6195 39.536 55.3795 40.384C54.7395 42.56 54.3715 44.096 54.2755 44.992C54.0355 46.432 53.6355 47.208 53.0755 47.32C52.9155 47.352 52.7635 47.376 52.6195 47.392C52.2675 47.408 52.0435 47.504 51.9475 47.68C51.8515 47.856 51.6915 47.984 51.4675 48.064C51.2435 48.16 50.9955 48.2 50.7235 48.184C50.4675 48.184 50.2035 48.12 49.9315 47.992C49.6595 47.88 49.4275 47.712 49.2355 47.488C48.7875 46.944 48.6995 46.216 48.9715 45.304C49.2275 43.56 49.8755 41.344 50.9155 38.656C51.4115 37.328 51.8915 36.312 52.3555 35.608ZM56.8915 32.008C56.1075 32.168 55.4675 32.12 54.9715 31.864C54.4915 31.608 54.2115 31.304 54.1315 30.952C54.0515 30.584 54.1635 30.208 54.4675 29.824C54.8195 29.344 55.3475 29.032 56.0515 28.888C56.3715 28.856 56.6035 28.84 56.7475 28.84C56.8915 28.84 57.0675 28.872 57.2755 28.936C57.8035 28.984 58.1475 29.216 58.3075 29.632C58.5315 29.984 58.5475 30.384 58.3555 30.832C58.1795 31.28 57.6915 31.672 56.8915 32.008ZM65.5864 46.576C64.9624 47.088 64.2184 47.472 63.3544 47.728C62.5064 48 61.6504 48.144 60.7864 48.16C59.9224 48.176 59.1144 48.072 58.3624 47.848C57.6104 47.624 57.0184 47.272 56.5864 46.792C56.0744 46.248 55.8984 45.704 56.0584 45.16C56.1384 44.936 56.2824 44.76 56.4904 44.632C56.6824 44.504 56.9224 44.472 57.2104 44.536C57.4024 44.552 57.5384 44.504 57.6184 44.392C57.7144 44.264 57.7944 44.128 57.8584 43.984C57.9224 43.824 57.9944 43.68 58.0744 43.552C58.1544 43.408 58.2824 43.336 58.4584 43.336C61.2744 43.416 62.7384 43.168 62.8504 42.592C62.6584 42.416 62.4184 42.264 62.1304 42.136C61.8584 42.008 61.5784 41.88 61.2904 41.752C60.5864 41.432 60.1144 41.08 59.8744 40.696C59.5704 40.536 59.3384 40.152 59.1784 39.544C59.0984 39.272 59.0584 38.992 59.0584 38.704C59.0584 38.416 59.1064 38.152 59.2024 37.912C59.1544 37.288 59.5384 36.6 60.3544 35.848C60.5784 35.64 60.8584 35.416 61.1944 35.176C61.5304 34.936 62.0344 34.704 62.7064 34.48C63.3784 34.256 64.0424 34.096 64.6984 34C65.3704 33.888 65.9704 33.848 66.4984 33.88C67.0424 33.912 67.4264 34.04 67.6504 34.264C67.8904 34.488 68.0744 34.768 68.2024 35.104C68.3464 35.44 68.3944 35.768 68.3464 36.088C68.2184 36.808 67.6264 37.304 66.5704 37.576C65.2424 37.768 64.6024 37.944 64.6504 38.104C64.6504 38.136 64.5944 38.176 64.4824 38.224C65.7144 39.072 66.5704 39.904 67.0504 40.72C67.7064 41.84 67.8024 43.088 67.3384 44.464C67.4184 44.912 67.0184 45.472 66.1384 46.144C65.9304 46.304 65.7464 46.448 65.5864 46.576ZM82.0471 43.432C82.0471 44.28 82.1511 45.016 82.3591 45.64C82.3591 46.152 82.2391 46.512 81.9991 46.72C81.7591 46.944 81.4551 47.056 81.0871 47.056C80.7351 47.072 80.3591 47 79.9591 46.84C79.5591 46.696 79.2151 46.512 78.9271 46.288C78.6551 46.064 78.4791 45.888 78.3991 45.76C78.3191 45.616 78.1911 45.408 78.0151 45.136C77.7431 43.872 77.6151 43.048 77.6311 42.664C77.6471 42.28 77.6791 41.952 77.7271 41.68C76.9271 42.096 76.3751 42.456 76.0711 42.76C75.5111 43.32 75.0391 44.04 74.6551 44.92C74.5271 45.624 74.4231 45.992 74.3431 46.024C74.2631 46.072 74.1591 46.104 74.0311 46.12C73.9031 46.136 73.7671 46.192 73.6231 46.288C73.4791 46.384 73.3431 46.464 73.2151 46.528C73.0871 46.592 72.9591 46.656 72.8311 46.72C72.5271 46.896 72.3271 46.984 72.2311 46.984C71.3191 47.272 70.4471 47.144 69.6151 46.6C69.2631 46.36 68.9911 46.056 68.7991 45.688C68.6071 45.304 68.5591 44.896 68.6551 44.464C69.3431 41.504 70.2871 38.488 71.4871 35.416C72.2231 33.544 72.9271 32.064 73.5991 30.976C73.7591 30.72 73.9191 30.448 74.0791 30.16C74.4151 29.584 74.6471 29.192 74.7751 28.984C74.6151 28.568 74.6151 28.208 74.7751 27.904C74.9511 27.584 75.2071 27.336 75.5431 27.16C75.8951 26.968 76.2951 26.84 76.7431 26.776C77.1911 26.712 77.6151 26.704 78.0151 26.752C78.9751 26.896 79.4871 27.272 79.5511 27.88C79.4551 28.168 79.3191 28.512 79.1431 28.912C78.9831 29.312 78.8151 29.72 78.6391 30.136C78.4791 30.536 78.3191 30.912 78.1591 31.264C78.0151 31.616 77.9031 31.88 77.8231 32.056C77.7591 32.216 77.6551 32.504 77.5111 32.92C77.3831 33.32 77.2391 33.76 77.0791 34.24C76.9351 34.704 76.7991 35.136 76.6711 35.536L76.3831 36.376C76.3191 36.6 76.2151 36.944 76.0711 37.408C75.9271 37.856 75.7751 38.416 75.6151 39.088C75.8231 38.928 75.9911 38.744 76.1191 38.536C76.2631 38.312 76.4631 38.064 76.7191 37.792C76.9911 37.52 77.3351 37.256 77.7511 37C78.1831 36.728 78.6391 36.552 79.1191 36.472C80.1591 36.296 81.1031 36.632 81.9511 37.48C82.5911 38.12 82.7911 39.08 82.5511 40.36C82.4551 40.888 82.3351 41.424 82.1911 41.968C82.0631 42.496 82.0151 42.984 82.0471 43.432ZM96.4793 36.184C97.2793 34.984 98.3913 34.264 99.8153 34.024C100.279 33.944 100.847 33.888 101.519 33.856C102.207 33.824 102.791 33.976 103.271 34.312C103.767 34.648 104.135 35.08 104.375 35.608C104.791 36.552 104.855 37.712 104.567 39.088C104.407 39.84 104.215 40.672 103.991 41.584C103.767 42.48 103.431 43.368 102.983 44.248C102.535 45.128 101.951 45.952 101.231 46.72C100.511 47.488 99.5753 48.096 98.4233 48.544C97.7353 48.816 97.1273 48.912 96.5993 48.832C96.0873 48.768 95.7033 48.664 95.4473 48.52C95.1913 48.376 95.0153 48.168 94.9193 47.896C94.5993 48.808 94.2953 49.728 94.0073 50.656C93.7353 51.6 93.3673 52.496 92.9033 53.344C92.5833 53.552 92.1913 53.704 91.7273 53.8C91.2633 53.912 90.8073 53.888 90.3593 53.728C89.9113 53.584 89.5913 53.312 89.3993 52.912C89.1913 52.528 89.0873 52.104 89.0873 51.64C89.0873 51.016 89.2393 50.256 89.5433 49.36C89.9913 48.032 90.3593 47.008 90.6473 46.288C90.9193 45.568 91.0953 45.104 91.1753 44.896C91.2553 44.672 91.3353 44.44 91.4153 44.2C91.7673 43.272 92.0233 42.52 92.1833 41.944C92.3593 41.352 92.5193 40.84 92.6633 40.408V40.384C92.8233 39.68 93.0713 38.936 93.4073 38.152C93.7593 37.352 93.9993 36.864 94.1273 36.688C94.3993 36.416 94.6793 36.248 94.9673 36.184C95.2553 36.12 95.5833 36.08 95.9513 36.064H96.0233L96.4793 36.184ZM98.3033 40.192C98.1113 40.528 97.7913 40.84 97.3433 41.128L97.1273 41.632C96.9673 42.048 96.8153 42.472 96.6713 42.904C96.5273 43.336 96.3673 43.76 96.1913 44.176C96.3513 44.336 96.4713 44.488 96.5513 44.632C97.4473 43.848 98.2633 42.816 98.9993 41.536C99.2873 41.008 99.4713 40.48 99.5513 39.952C99.6473 39.424 99.6713 39.088 99.6233 38.944C99.5753 38.8 99.4953 38.728 99.3833 38.728C99.2873 38.728 99.1833 38.76 99.0713 38.824C98.9753 38.872 98.8953 38.928 98.8313 38.992C98.7833 39.04 98.7913 39.04 98.8553 38.992C98.6793 39.2 98.5513 39.384 98.4713 39.544C98.3913 39.688 98.3353 39.904 98.3033 40.192ZM113.181 42.448C112.877 42.592 112.581 42.704 112.293 42.784C112.005 42.864 111.669 42.944 111.285 43.024C110.277 43.232 109.549 43.352 109.101 43.384C109.149 43.544 109.389 43.736 109.821 43.96C110.109 44.008 110.421 43.968 110.757 43.84C111.109 43.696 111.469 43.568 111.837 43.456C112.221 43.328 112.589 43.256 112.941 43.24C113.309 43.224 113.653 43.36 113.973 43.648C114.101 43.936 114.205 44.104 114.285 44.152C114.365 44.2 114.437 44.224 114.501 44.224C114.565 44.224 114.637 44.248 114.717 44.296C114.797 44.344 114.909 44.528 115.053 44.848C115.213 45.168 115.173 45.472 114.933 45.76C114.709 46.048 114.357 46.296 113.877 46.504C113.397 46.712 112.837 46.88 112.197 47.008C111.557 47.136 110.917 47.224 110.277 47.272C108.837 47.384 107.741 47.272 106.989 46.936C105.901 46.568 105.197 45.84 104.877 44.752C104.461 43.312 104.693 41.632 105.573 39.712C105.973 38.816 106.605 37.856 107.469 36.832C108.221 35.936 109.061 35.288 109.989 34.888C111.061 34.424 112.181 34.208 113.349 34.24C114.597 34.272 115.461 34.816 115.941 35.872C116.181 36.432 116.229 37.216 116.085 38.224C115.829 39.536 115.493 40.464 115.077 41.008C114.661 41.536 114.029 42.016 113.181 42.448ZM111.789 38.656C110.941 38.48 110.277 38.96 109.797 40.096C109.653 40.4 109.541 40.72 109.461 41.056C110.005 41.12 110.581 40.816 111.189 40.144C111.413 39.872 111.581 39.6 111.693 39.328C111.805 39.04 111.837 38.816 111.789 38.656ZM122.887 28.048L122.911 27.952L123.127 27.736C123.303 27.32 123.495 27.072 123.703 26.992C123.815 26.96 123.959 26.92 124.135 26.872C124.311 26.824 124.543 26.704 124.831 26.512C124.943 26.288 125.175 26.192 125.527 26.224C125.879 26.24 126.223 26.352 126.559 26.56C126.911 26.752 127.191 27.024 127.399 27.376C127.623 27.728 127.679 28.096 127.567 28.48C127.455 28.848 127.359 29.128 127.279 29.32C127.215 29.496 127.143 29.664 127.063 29.824C126.999 29.984 126.911 30.168 126.799 30.376C126.703 30.568 126.575 30.832 126.415 31.168L125.623 32.824C125.543 33.032 125.471 33.152 125.407 33.184C125.359 33.216 125.311 33.272 125.263 33.352C125.407 33.32 125.527 33.296 125.623 33.28C125.719 33.264 125.815 33.248 125.911 33.232C126.135 33.2 126.391 33.168 126.679 33.136C126.855 33.168 127.007 33.184 127.135 33.184H127.471C127.663 33.184 127.895 33.24 128.167 33.352C128.439 33.448 128.615 33.624 128.695 33.88C128.775 34.136 128.783 34.4 128.719 34.672C128.655 34.928 128.527 35.168 128.335 35.392C128.143 35.616 127.895 35.736 127.591 35.752C126.199 36.136 125.207 36.344 124.615 36.376L124.471 36.544V36.568C124.311 36.952 124.135 37.44 123.943 38.032C123.767 38.608 123.567 39.24 123.343 39.928C123.135 40.6 122.919 41.304 122.695 42.04C122.471 42.76 122.239 43.456 121.999 44.128C121.231 46.384 120.671 47.608 120.319 47.8C120.191 47.864 120.055 47.904 119.911 47.92C119.783 47.952 119.711 47.976 119.695 47.992C119.135 47.96 118.671 47.848 118.303 47.656C117.935 47.464 117.687 47.28 117.559 47.104C117.431 46.928 117.399 46.728 117.463 46.504C117.767 43.72 118.375 40.672 119.287 37.36C118.967 37.36 118.743 37.392 118.615 37.456C118.375 37.584 118.087 37.656 117.751 37.672H117.727C117.471 37.656 117.239 37.536 117.031 37.312C116.823 37.088 116.695 36.832 116.647 36.544C116.599 36.256 116.647 35.96 116.791 35.656C116.935 35.352 117.223 35.112 117.655 34.936C118.167 34.792 118.543 34.672 118.783 34.576C119.247 34.384 119.631 34.248 119.935 34.168C120.255 34.088 120.431 34.04 120.463 34.024C120.511 33.992 120.543 33.968 120.559 33.952C120.607 33.92 120.727 33.904 120.919 33.904C121.015 33.44 121.111 32.968 121.207 32.488C121.303 32.008 121.423 31.52 121.567 31.024C121.887 29.872 122.327 28.88 122.887 28.048ZM138.236 37.24C138.124 38.168 138.036 38.784 137.972 39.088C137.908 39.376 137.86 39.64 137.828 39.88C137.812 40.008 137.844 40.032 137.924 39.952C138.02 39.872 138.14 39.728 138.284 39.52C138.444 39.296 138.62 39.032 138.812 38.728C139.004 38.424 139.188 38.112 139.364 37.792C139.764 37.024 139.996 36.44 140.06 36.04C140.044 35.976 140.036 35.92 140.036 35.872C140.052 35.808 140.036 35.688 139.988 35.512C139.956 35.32 139.972 35.088 140.036 34.816C140.1 34.544 140.22 34.312 140.396 34.12C140.78 33.704 141.348 33.544 142.1 33.64C142.772 33.672 143.228 33.752 143.468 33.88C143.9 34.12 144.3 34.552 144.668 35.176C144.844 35.56 144.74 36.432 144.356 37.792C143.892 39.504 143.14 41.456 142.1 43.648C141.812 44.224 141.54 44.712 141.284 45.112C141.028 45.512 140.66 45.848 140.18 46.12C139.7 46.392 139.188 46.584 138.644 46.696C137.444 46.936 136.428 46.824 135.596 46.36C135.468 46.248 135.34 46.152 135.212 46.072C135.084 45.992 134.932 45.84 134.756 45.616C134.196 44.864 133.876 43.816 133.796 42.472C133.556 43.288 133.268 43.936 132.932 44.416C132.42 45.088 131.796 45.76 131.06 46.432C130.276 46.896 129.38 47.088 128.372 47.008C128.036 46.992 127.74 46.92 127.484 46.792C127.26 46.6 127.1 46.432 127.004 46.288C126.908 46.16 126.86 45.888 126.86 45.472C126.86 44.736 127.052 43.696 127.436 42.352C127.532 42 127.644 41.576 127.772 41.08C127.916 40.584 128.052 40.072 128.18 39.544C128.532 37.992 128.724 37.024 128.756 36.64C128.804 36.24 128.844 35.968 128.876 35.824C129.02 35.552 129.244 35.344 129.548 35.2C129.852 35.056 130.164 34.984 130.484 34.984C130.82 34.984 131.124 35.064 131.396 35.224C131.668 35.384 131.852 35.632 131.948 35.968H131.972V35.992C132.452 36.888 132.692 37.8 132.692 38.728C133.124 38.152 133.5 37.728 133.82 37.456C134.156 37.168 134.484 36.96 134.804 36.832C135.284 36.656 135.644 36.552 135.884 36.52C136.14 36.488 136.412 36.448 136.7 36.4C136.988 36.336 137.268 36.304 137.54 36.304C138.164 36.336 138.396 36.648 138.236 37.24ZM154.844 35.704L154.94 35.728C154.972 35.728 154.988 35.736 154.988 35.752C155.404 35.592 155.748 35.712 156.02 36.112C156.196 36.384 156.332 36.8 156.428 37.36C156.46 38.128 156.38 39.192 156.188 40.552C155.82 43.304 155.62 44.944 155.588 45.472C155.62 46.032 155.276 46.416 154.556 46.624C153.932 46.816 153.308 46.808 152.684 46.6C152.028 46.376 151.756 46.032 151.868 45.568C151.74 45.808 151.612 45.976 151.484 46.072C151.356 46.184 151.1 46.328 150.716 46.504C150.348 46.696 149.82 46.848 149.132 46.96C148.444 47.088 147.756 47.12 147.068 47.056C146.38 47.008 145.748 46.84 145.172 46.552C144.612 46.28 144.236 45.848 144.044 45.256C143.676 44.104 143.724 42.64 144.188 40.864C144.508 39.696 145.084 38.664 145.916 37.768C146.876 36.744 147.964 35.896 149.18 35.224C150.092 34.728 150.972 34.432 151.82 34.336C152.108 34.304 152.356 34.312 152.564 34.36C152.788 34.408 153.02 34.456 153.26 34.504C153.516 34.552 153.756 34.624 153.98 34.72C154.556 34.96 154.844 35.288 154.844 35.704ZM150.404 42.064C150.516 41.84 150.604 41.56 150.668 41.224C150.748 40.888 150.852 40.52 150.98 40.12C149.684 40.648 148.692 41.296 148.004 42.064C147.252 42.912 147.3 43.496 148.148 43.816C148.884 44.008 149.42 43.888 149.756 43.456C149.9 43.264 150.028 43.024 150.14 42.736C150.252 42.448 150.388 42.152 150.548 41.848C150.5 41.928 150.452 42 150.404 42.064ZM161.423 45.064C161.327 45.4 161.215 45.696 161.087 45.952C160.959 46.208 160.767 46.448 160.511 46.672C160.255 46.896 159.951 47.104 159.599 47.296C159.247 47.504 158.911 47.648 158.591 47.728C157.855 47.888 157.471 47.672 157.439 47.08C157.391 46.92 157.287 46.824 157.127 46.792C156.983 46.776 156.847 46.736 156.719 46.672C156.383 46.528 156.287 46.136 156.431 45.496C156.687 44.616 156.967 43.552 157.271 42.304C157.575 41.04 157.967 39.656 158.447 38.152C159.583 34.504 160.991 31.216 162.671 28.288C162.783 28.144 162.911 27.96 163.055 27.736C163.199 27.496 163.383 27.28 163.607 27.088C164.167 26.576 164.855 26.456 165.671 26.728C165.655 26.936 165.703 27.128 165.815 27.304C165.927 27.464 166.055 27.632 166.199 27.808C166.567 28.224 166.735 28.6 166.703 28.936C165.007 32.952 163.479 37.44 162.119 42.4C161.959 42.976 161.831 43.48 161.735 43.912C161.639 44.344 161.535 44.728 161.423 45.064Z" fill="white"/>
<path d="M168.861 46.912C168.669 47.296 168.381 47.632 167.997 47.92C167.629 48.224 167.253 48.432 166.869 48.544C166.501 48.672 166.253 48.736 166.125 48.736C165.997 48.736 165.669 48.696 165.141 48.616H165.117C165.101 48.616 165.077 48.6 165.045 48.568C164.213 48.184 163.797 47.664 163.797 47.008C163.797 46.432 164.093 45.856 164.685 45.28C165.485 44.512 166.349 44.16 167.277 44.224C167.389 44.24 167.653 44.304 168.069 44.416C168.117 44.464 168.149 44.488 168.165 44.488C169.077 45.192 169.309 46 168.861 46.912Z" fill="#CD104D"/>
</svg>
