<svg width="36" height="36" viewBox="0 0 36 36" fill="none" xmlns="http://www.w3.org/2000/svg">
<circle cx="18" cy="18" r="18" fill="#D9D9D9"/>
<path d="M24.4875 23.0083L21.9536 20.4708L20.0046 19.6644C20.6536 18.7402 21.0012 17.6377 21 16.5079C21 13.4708 18.5327 11 15.5 11C12.4673 11 10 13.4708 10 16.5079C10 19.5449 12.4673 22.0157 15.5 22.0157C16.638 22.017 17.7481 21.6628 18.6756 21.0025L19.4787 22.949L22.0125 25.4867C22.175 25.6494 22.3679 25.7785 22.5802 25.8666C22.7925 25.9547 23.0201 26 23.2499 26C23.4797 26 23.7073 25.9547 23.9196 25.8666C24.132 25.7785 24.3249 25.6495 24.4874 25.4867C24.6499 25.324 24.7788 25.1308 24.8668 24.9182C24.9547 24.7056 25 24.4777 25 24.2475C25 24.0174 24.9547 23.7895 24.8668 23.5768C24.7789 23.3642 24.65 23.171 24.4875 23.0083ZM11 16.5079C11 14.0231 13.0187 12.0014 15.5 12.0014C17.9812 12.0014 20 14.0231 20 16.5079C20 18.9927 17.9812 21.0143 15.5 21.0143C13.0187 21.0143 11 18.9927 11 16.5079ZM23.7803 24.7785C23.6395 24.9192 23.4488 24.9982 23.25 24.9982C23.0511 24.9982 22.8604 24.9192 22.7196 24.7785L20.3268 22.3823L19.5801 20.5723L21.3875 21.3201L23.7804 23.7164C23.9208 23.8574 23.9997 24.0484 23.9997 24.2475C23.9996 24.4466 23.9208 24.6376 23.7803 24.7785Z" fill="black"/>
</svg>
